<svg xmlns="http://www.w3.org/2000/svg" width="31.523mm" height="36.072mm" viewBox="0 0 89.356 102.252"><title>Asset 22</title><g data-name="Layer 2"><g data-name="Layer 1"><path d="M2,27.063V75.189a1,1,0,0,0,.5.866l41.678,24.063a1,1,0,0,0,1,0L86.856,76.055a1,1,0,0,0,.5-.866V27.063a1,1,0,0,0-.5-.866L45.178,2.134a1,1,0,0,0-1,0L2.5,26.2A1,1,0,0,0,2,27.063Z" fill="#fff" stroke="#010101" stroke-miterlimit="10" stroke-width="4"/><path d="M56.193,53.355l1.145-8.847H48.591V38.8c0-2.572.671-4.324,4.358-4.324l4.66,0V26.533a62.744,62.744,0,0,0-6.818-.35c-6.781,0-11.387,4.139-11.387,11.74v6.585H31.748v8.847H39.4V76.069h9.187V53.355Z" fill="#010101"/></g></g></svg>