<svg xmlns="http://www.w3.org/2000/svg" width="31.523mm" height="36.072mm" viewBox="0 0 89.356 102.252"><title>Asset 25</title><g data-name="Layer 2"><g data-name="Layer 1"><path d="M2,27.063V75.189a1,1,0,0,0,.5.866l41.678,24.063a1,1,0,0,0,1,0L86.856,76.055a1,1,0,0,0,.5-.866V27.063a1,1,0,0,0-.5-.866L45.178,2.134a1,1,0,0,0-1,0L2.5,26.2A1,1,0,0,0,2,27.063Z" fill="#fff" stroke="#010101" stroke-miterlimit="10" stroke-width="4"/><path d="M45.645,31.959c6.27,0,7.012.024,9.488.137a13,13,0,0,1,4.36.808,7.776,7.776,0,0,1,4.456,4.457,12.983,12.983,0,0,1,.809,4.359c.112,2.476.136,3.219.136,9.488s-.024,7.012-.136,9.488a13,13,0,0,1-.809,4.36,7.778,7.778,0,0,1-4.456,4.456,13,13,0,0,1-4.36.808c-2.475.113-3.218.137-9.488.137s-7.012-.024-9.487-.137a13,13,0,0,1-4.36-.808,7.778,7.778,0,0,1-4.456-4.456,13,13,0,0,1-.809-4.36c-.113-2.476-.136-3.219-.136-9.488s.023-7.012.136-9.488a12.983,12.983,0,0,1,.809-4.359A7.776,7.776,0,0,1,31.8,32.9a13,13,0,0,1,4.36-.808c2.476-.113,3.218-.137,9.487-.137m0-4.23c-6.376,0-7.176.027-9.68.141a17.252,17.252,0,0,0-5.7,1.091A12.005,12.005,0,0,0,23.4,35.828a17.218,17.218,0,0,0-1.092,5.7c-.114,2.5-.141,3.3-.141,9.68s.027,7.176.141,9.681a17.217,17.217,0,0,0,1.092,5.7,12.005,12.005,0,0,0,6.866,6.867,17.252,17.252,0,0,0,5.7,1.091c2.5.115,3.3.141,9.68.141s7.177-.026,9.681-.141a17.24,17.24,0,0,0,5.7-1.091,12,12,0,0,0,6.867-6.867,17.217,17.217,0,0,0,1.092-5.7c.114-2.505.141-3.3.141-9.681s-.027-7.176-.141-9.68a17.218,17.218,0,0,0-1.092-5.7,12,12,0,0,0-6.867-6.867,17.24,17.24,0,0,0-5.7-1.091c-2.5-.114-3.3-.141-9.681-.141Z" fill="#010101"/><path d="M45.645,39.151A12.057,12.057,0,1,0,57.7,51.208,12.058,12.058,0,0,0,45.645,39.151Zm0,19.884a7.827,7.827,0,1,1,7.827-7.827A7.827,7.827,0,0,1,45.645,59.035Z" fill="#010101"/><circle cx="58.179" cy="38.675" r="2.818" fill="#010101"/></g></g></svg>