<svg xmlns="http://www.w3.org/2000/svg" width="31.523mm" height="36.072mm" viewBox="0 0 89.356 102.252"><title>Asset 23</title><g data-name="Layer 2"><g data-name="Layer 1"><path d="M2,27.063V75.189a1,1,0,0,0,.5.866l41.678,24.063a1,1,0,0,0,1,0L86.856,76.055a1,1,0,0,0,.5-.866V27.063a1,1,0,0,0-.5-.866L45.178,2.134a1,1,0,0,0-1,0L2.5,26.2A1,1,0,0,0,2,27.063Z" fill="#fff" stroke="#010101" stroke-miterlimit="10" stroke-width="4"/><path d="M35.553,70.29c17.721,0,27.412-14.681,27.412-27.412,0-.417-.008-.832-.028-1.245a19.607,19.607,0,0,0,4.807-4.989,19.231,19.231,0,0,1-5.533,1.517,9.667,9.667,0,0,0,4.236-5.33A19.3,19.3,0,0,1,60.33,35.17a9.642,9.642,0,0,0-16.418,8.786A27.352,27.352,0,0,1,24.053,33.891a9.64,9.64,0,0,0,2.983,12.861,9.564,9.564,0,0,1-4.364-1.205c0,.04,0,.081,0,.123A9.638,9.638,0,0,0,30.4,55.115a9.662,9.662,0,0,1-2.539.339,9.546,9.546,0,0,1-1.811-.174,9.645,9.645,0,0,0,9,6.692A19.334,19.334,0,0,1,23.083,66.1a19.6,19.6,0,0,1-2.3-.133A27.277,27.277,0,0,0,35.553,70.29" fill="#010101"/></g></g></svg>