<svg id="Layer_1" data-name="Layer 1" xmlns="http://www.w3.org/2000/svg" viewBox="0 0 74.96 64.99"><defs><style>.cls-1{fill:#fff;}</style></defs><title>Icon_Cart_White</title><g data-name="Layer 2"><g data-name="Layer 1-2"><path class="cls-1" d="M45,0a2.57,2.57,0,0,0-2.24,1.29,2.56,2.56,0,0,0,.11,2.59L56.3,25H18.69L32.1,3.88a2.55,2.55,0,0,0,.07-2.6A2.5,2.5,0,0,0,28.75.36a2.59,2.59,0,0,0-.87.84L12.78,25H2.23A2.6,2.6,0,0,0,0,28H0L6.71,63a2.58,2.58,0,0,0,2.45,2H65.83a2.58,2.58,0,0,0,2.45-2L75,28a2.61,2.61,0,0,0-2.23-2.94l-.22,0H62.21L47.11,1.2A2.58,2.58,0,0,0,45,0ZM5.51,30h64l-5.7,30H11.22Z" transform="translate(-0.01 0)"/></g></g></svg>